<svg xmlns="http://www.w3.org/2000/svg" width="2400" height="1200" viewBox="0 0 2400 1200">
  <defs>
    <radialGradient id="ws" cx="50%" cy="50%" r="50%">
      <stop offset="0%" stop-color="#818CF8" stop-opacity="0.32"/>
      <stop offset="100%" stop-color="#5B6CFF" stop-opacity="0"/>
    </radialGradient>
    <linearGradient id="we" x1="0" y1="0" x2="1" y2="0">
      <stop offset="0%" stop-color="#A5B4FC" stop-opacity="0.04"/>
      <stop offset="50%" stop-color="#A5B4FC" stop-opacity="0.55"/>
      <stop offset="100%" stop-color="#A78BFA" stop-opacity="0.04"/>
    </linearGradient>
    <radialGradient id="wv" cx="50%" cy="50%" r="80%">
      <stop offset="55%" stop-color="transparent"/>
      <stop offset="100%" stop-color="#06070C" stop-opacity="0.92"/>
    </radialGradient>
  </defs>
  <rect width="2400" height="1200" fill="#06070C"/>
  <rect width="2400" height="1200" fill="url(#ws)"/>
  <g stroke="url(#we)" stroke-width="1.4" fill="none" opacity="0.8">
    <path d="M 240 360 C 540 360 760 480 1000 540"/>
    <path d="M 240 840 C 540 840 760 720 1000 660"/>
    <path d="M 1000 540 C 1180 540 1280 580 1400 600"/>
    <path d="M 1000 660 C 1180 660 1280 620 1400 600"/>
    <path d="M 1400 600 C 1640 600 1860 480 2160 360"/>
    <path d="M 1400 600 C 1640 600 1860 720 2160 840"/>
  </g>
  <g fill="#A5B4FC">
    <circle cx="240" cy="360" r="10" opacity="0.85"/>
    <circle cx="240" cy="840" r="10" opacity="0.85"/>
    <circle cx="1000" cy="540" r="10" opacity="0.9"/>
    <circle cx="1000" cy="660" r="10" opacity="0.9"/>
    <circle cx="1400" cy="600" r="14" fill="#FFFFFF" opacity="0.95"/>
    <circle cx="2160" cy="360" r="10" opacity="0.85"/>
    <circle cx="2160" cy="840" r="10" opacity="0.85"/>
  </g>
  <rect width="2400" height="1200" fill="url(#wv)"/>
</svg>
