<svg xmlns="http://www.w3.org/2000/svg" width="2400" height="1400" viewBox="0 0 2400 1400">
  <defs>
    <radialGradient id="ds" cx="60%" cy="40%" r="55%">
      <stop offset="0%" stop-color="#818CF8" stop-opacity="0.28"/>
      <stop offset="100%" stop-color="#5B6CFF" stop-opacity="0"/>
    </radialGradient>
    <linearGradient id="dl" x1="0" y1="1" x2="1" y2="0">
      <stop offset="0%" stop-color="#A5B4FC" stop-opacity="0.06"/>
      <stop offset="100%" stop-color="#A5B4FC" stop-opacity="0.6"/>
    </linearGradient>
    <radialGradient id="dv" cx="50%" cy="50%" r="80%">
      <stop offset="55%" stop-color="transparent"/>
      <stop offset="100%" stop-color="#06070C" stop-opacity="0.92"/>
    </radialGradient>
  </defs>
  <rect width="2400" height="1400" fill="#06070C"/>
  <rect width="2400" height="1400" fill="url(#ds)"/>
  <g transform="translate(280, 420)" opacity="0.6">
    <rect width="1840" height="780" rx="36" fill="#0F1117" opacity="0.85"/>
    <rect x="44" y="44" width="180" height="32" rx="16" fill="#10B981" opacity="0.18"/>
    <rect x="44" y="120" width="640" height="80" rx="8" fill="#FFFFFF" opacity="0.06"/>
    <rect x="704" y="120" width="640" height="80" rx="8" fill="#FFFFFF" opacity="0.06"/>
    <path d="M 60 580 L 220 480 L 380 540 L 560 380 L 760 420 L 980 280 L 1180 320 L 1380 220 L 1580 240 L 1760 160" stroke="url(#dl)" stroke-width="3" fill="none" stroke-linecap="round"/>
    <circle cx="1760" cy="160" r="8" fill="#A5B4FC"/>
  </g>
  <rect width="2400" height="1400" fill="url(#dv)"/>
</svg>
